<svg xmlns="http://www.w3.org/2000/svg" xmlns:xlink="http://www.w3.org/1999/xlink" width="500" zoomAndPan="magnify" viewBox="0 0 375 374.999991" height="500" preserveAspectRatio="xMidYMid meet" version="1.0"><defs><clipPath id="82da8c7e4b"><path d="M 37.617188 18.75 L 288.84375 18.75 L 288.84375 356.203125 L 37.617188 356.203125 Z M 37.617188 18.75 " clip-rule="nonzero"/></clipPath><clipPath id="63a3063afa"><path d="M 170.082031 73.613281 L 343.398438 73.613281 L 343.398438 215 L 170.082031 215 Z M 170.082031 73.613281 " clip-rule="nonzero"/></clipPath></defs><g clip-path="url(#82da8c7e4b)"><path fill="#ffde59" d="M 288.515625 36.40625 L 288.515625 304.542969 L 286.1875 306.867188 L 233.546875 356.203125 L 55.257812 356.203125 C 50.402344 356.203125 45.984375 354.21875 42.792969 351.023438 C 39.597656 347.824219 37.617188 343.410156 37.617188 338.546875 L 37.617188 36.40625 C 37.617188 31.539062 39.597656 27.125 42.792969 23.929688 C 45.984375 20.734375 50.402344 18.75 55.257812 18.75 L 270.875 18.75 C 275.734375 18.75 280.148438 20.734375 283.339844 23.929688 C 286.535156 27.125 288.515625 31.539062 288.515625 36.40625 " fill-opacity="1" fill-rule="evenodd"/></g><g clip-path="url(#63a3063afa)"><path fill="#008037" d="M 184.839844 162.984375 C 182.15625 159.617188 177.246094 159.066406 173.878906 161.757812 C 170.515625 164.449219 169.964844 169.363281 172.65625 172.730469 L 204.015625 211.972656 C 203.476562 212.519531 210.523438 217.957031 215.753906 212.542969 L 341.101562 87.078125 C 344.164062 84.019531 344.164062 79.046875 341.101562 75.984375 C 338.042969 72.921875 333.078125 72.921875 330.015625 75.984375 L 210.730469 195.375 L 184.839844 162.984375 " fill-opacity="1" fill-rule="nonzero"/></g><path fill="#ffffff" d="M 79.949219 155.921875 L 70.644531 155.921875 L 70.644531 136.878906 C 70.644531 133.628906 71.191406 130.429688 72.207031 127.378906 C 73.246094 124.269531 74.753906 121.390625 76.652344 118.847656 C 78.550781 116.308594 80.894531 114.039062 83.597656 112.144531 C 86.230469 110.304688 89.152344 108.863281 92.277344 107.921875 L 93.496094 107.550781 L 97.113281 106.464844 L 99.988281 108.9375 L 100.960938 109.773438 C 101.484375 110.222656 102.050781 110.632812 102.65625 110.988281 C 103.289062 111.363281 103.902344 111.664062 104.488281 111.882812 C 105.035156 112.082031 105.671875 112.253906 106.402344 112.382812 C 107.066406 112.5 107.761719 112.558594 108.476562 112.558594 C 109.1875 112.558594 109.878906 112.5 110.539062 112.382812 C 111.203125 112.261719 111.855469 112.085938 112.476562 111.851562 C 113.152344 111.601562 113.765625 111.316406 114.300781 111.003906 C 114.859375 110.675781 115.414062 110.277344 115.957031 109.808594 L 116.992188 108.925781 L 120.046875 106.308594 L 123.832031 107.675781 L 125.113281 108.136719 C 128.371094 109.3125 131.207031 110.765625 133.660156 112.503906 C 136.25 114.339844 138.40625 116.492188 140.179688 118.980469 C 141.917969 121.429688 143.234375 124.15625 144.152344 127.1875 C 145.023438 130.054688 145.519531 133.148438 145.671875 136.484375 L 145.703125 136.78125 L 145.703125 136.878906 L 145.671875 136.878906 L 145.675781 146.609375 L 145.679688 148.964844 L 145.683594 155.921875 L 79.949219 155.921875 " fill-opacity="1" fill-rule="evenodd"/><path fill="#ffffff" d="M 125.425781 97.035156 C 121.011719 101.449219 114.914062 104.183594 108.183594 104.183594 C 101.453125 104.183594 95.351562 101.453125 90.941406 97.035156 C 86.527344 92.617188 83.796875 86.515625 83.796875 79.773438 C 83.796875 73.035156 86.527344 66.933594 90.9375 62.515625 C 95.351562 58.101562 101.449219 55.367188 108.183594 55.367188 C 114.917969 55.367188 121.011719 58.101562 125.425781 62.519531 C 129.839844 66.933594 132.570312 73.039062 132.570312 79.773438 C 132.570312 86.511719 129.835938 92.617188 125.425781 97.035156 " fill-opacity="1" fill-rule="evenodd"/><path fill="#170607" d="M 170.90625 82.425781 L 257.15625 82.425781 L 257.15625 96.335938 L 170.90625 96.335938 L 170.90625 82.425781 " fill-opacity="1" fill-rule="evenodd"/><path fill="#170607" d="M 68.980469 239.378906 L 257.15625 239.378906 L 257.15625 253.292969 L 68.980469 253.292969 L 68.980469 239.378906 " fill-opacity="1" fill-rule="evenodd"/><path fill="#170607" d="M 68.980469 286.464844 L 257.15625 286.464844 L 257.15625 300.378906 L 68.980469 300.378906 L 68.980469 286.464844 " fill-opacity="1" fill-rule="evenodd"/></svg>